<svg width="14" height="14" viewBox="0 0 14 14" fill="none" xmlns="http://www.w3.org/2000/svg">
<path fill-rule="evenodd" clip-rule="evenodd" d="M1.81694 0.933058C1.57286 0.688981 1.17714 0.688981 0.933059 0.933058C0.688981 1.17714 0.688981 1.57286 0.933059 1.81694L6.11612 7L0.933058 12.1831C0.688981 12.4271 0.688981 12.8229 0.933058 13.0669C1.17714 13.311 1.57286 13.311 1.81694 13.0669L7 7.88388L12.1831 13.0669C12.4271 13.311 12.8229 13.311 13.0669 13.0669C13.311 12.8229 13.311 12.4271 13.0669 12.1831L7.88388 7L13.0669 1.81694C13.311 1.57286 13.311 1.17714 13.0669 0.933058C12.8229 0.688981 12.4271 0.688981 12.1831 0.933058L7 6.11612L1.81694 0.933058Z" fill="#717171"/>
</svg>
