<svg width="18" height="17" viewBox="0 0 18 17" fill="none" xmlns="http://www.w3.org/2000/svg">
<path fill-rule="evenodd" clip-rule="evenodd" d="M0.875 2.29492C0.875 1.25939 1.71447 0.419922 2.75 0.419922H15.25C16.2855 0.419922 17.125 1.25939 17.125 2.29492V14.7949C17.125 15.8305 16.2855 16.6699 15.25 16.6699H2.75C1.71447 16.6699 0.875 15.8305 0.875 14.7949V2.29492ZM2.125 10.4199H15.875V6.66992H2.125V10.4199ZM2.125 11.6699V14.7949C2.125 15.1401 2.40482 15.4199 2.75 15.4199H15.25C15.5952 15.4199 15.875 15.1401 15.875 14.7949V11.6699H2.125ZM15.875 2.29492V5.41992H2.125V2.29492C2.125 1.94974 2.40482 1.66992 2.75 1.66992H15.25C15.5952 1.66992 15.875 1.94974 15.875 2.29492Z" fill="#717171"/>
</svg>
