<svg width="14" height="15" viewBox="0 0 14 15" fill="none" xmlns="http://www.w3.org/2000/svg">
<path fill-rule="evenodd" clip-rule="evenodd" d="M5 0.455078C4.17157 0.455078 3.5 1.12665 3.5 1.95508V2.45508H1.5H0.952484H0.5C0.223858 2.45508 0 2.67894 0 2.95508C0 3.23122 0.223858 3.45508 0.5 3.45508H1.04339L1.8367 12.1814C1.95376 13.4691 3.03342 14.4551 4.32643 14.4551H9.67357C10.9666 14.4551 12.0462 13.4691 12.1633 12.1814L12.9566 3.45508H13.5C13.7761 3.45508 14 3.23122 14 2.95508C14 2.67894 13.7761 2.45508 13.5 2.45508L13.0475 2.45508H12.5H10.5V1.95508C10.5 1.12665 9.82843 0.455078 9 0.455078H5ZM9.5 2.45508V1.95508C9.5 1.67894 9.27614 1.45508 9 1.45508H5C4.72386 1.45508 4.5 1.67894 4.5 1.95508V2.45508H9.5ZM4 3.45508H2.04752L2.83259 12.0909C2.90283 12.8635 3.55062 13.4551 4.32643 13.4551H9.67357C10.4494 13.4551 11.0972 12.8635 11.1674 12.0909L11.9525 3.45508H10H4ZM6 5.45508C6 5.17894 5.77614 4.95508 5.5 4.95508C5.22386 4.95508 5 5.17894 5 5.45508V10.4551C5 10.7312 5.22386 10.9551 5.5 10.9551C5.77614 10.9551 6 10.7312 6 10.4551V5.45508ZM8.5 4.95508C8.77614 4.95508 9 5.17894 9 5.45508V10.4551C9 10.7312 8.77614 10.9551 8.5 10.9551C8.22386 10.9551 8 10.7312 8 10.4551V5.45508C8 5.17894 8.22386 4.95508 8.5 4.95508Z" fill="#D33852"/>
</svg>
