<svg width="4" height="16" viewBox="0 0 4 16" fill="none" xmlns="http://www.w3.org/2000/svg">
<path d="M0.75 1.75C0.75 2.44036 1.30964 3.00001 2 3.00001C2.69035 3.00001 3.25 2.44036 3.25 1.75C3.25 1.05965 2.69035 0.5 2 0.5C1.30964 0.5 0.75 1.05965 0.75 1.75Z" fill="#222222"/>
<path d="M0.75 14.25C0.75 14.9404 1.30964 15.5 2 15.5C2.69035 15.5 3.25 14.9404 3.25 14.25C3.25 13.5597 2.69035 13 2 13C1.30964 13 0.75 13.5597 0.75 14.25Z" fill="#222222"/>
<path d="M2 9.25001C1.30964 9.25001 0.75 8.69036 0.75 8.00001C0.75 7.30965 1.30964 6.75 2 6.75C2.69035 6.75 3.25 7.30965 3.25 8.00001C3.25 8.69036 2.69035 9.25001 2 9.25001Z" fill="#222222"/>
</svg>
