<svg width="16" height="16" viewBox="0 0 16 16" fill="none" xmlns="http://www.w3.org/2000/svg">
<path d="M9.69232 2.19232C10.829 1.05569 12.6718 1.05568 13.8084 2.19232C14.9451 3.32895 14.9451 5.1718 13.8084 6.30844L11.4601 8.65678C10.2397 9.87717 8.26106 9.87717 7.04067 8.65679L6.56732 8.18344C6.32324 7.93936 5.92751 7.93936 5.68344 8.18344C5.43936 8.42751 5.43936 8.82324 5.68344 9.06732L6.15679 9.54067C7.86533 11.2492 10.6354 11.2492 12.344 9.54067L14.6923 7.19232C16.3171 5.56753 16.3171 2.93323 14.6923 1.30844C13.0675 -0.316354 10.4332 -0.316353 8.80844 1.30844L6.93344 3.18344C6.68936 3.42751 6.68936 3.82324 6.93344 4.06732C7.17751 4.3114 7.57324 4.3114 7.81732 4.06732L9.69232 2.19232Z" fill="#717171"/>
<path d="M4.54067 7.34395C5.76106 6.12357 7.7397 6.12357 8.96009 7.34395L9.43344 7.8173C9.67752 8.06138 10.0732 8.06138 10.3173 7.8173C10.5614 7.57322 10.5614 7.1775 10.3173 6.93342L9.84397 6.46007C8.13543 4.75153 5.36533 4.75153 3.65679 6.46007L1.30843 8.80843C-0.316355 10.4332 -0.316352 13.0675 1.30844 14.6923C2.93323 16.3171 5.56753 16.3171 7.19232 14.6923L9.06732 12.8173C9.3114 12.5732 9.3114 12.1775 9.06732 11.9334C8.82324 11.6893 8.42752 11.6893 8.18344 11.9334L6.30844 13.8084C5.1718 14.9451 3.32896 14.9451 2.19232 13.8084C1.05569 12.6718 1.05568 10.8289 2.19232 9.69231L4.54067 7.34395Z" fill="#717171"/>
</svg>
