<svg width="14" height="14" viewBox="0 0 14 14" fill="none" xmlns="http://www.w3.org/2000/svg">
<path fill-rule="evenodd" clip-rule="evenodd" d="M0.5 10.4548C0.5 10.3222 0.552678 10.195 0.646446 10.1012L9.23223 1.51544C10.2085 0.539124 11.7915 0.539127 12.7678 1.51544L12.9393 1.68701C13.9156 2.66332 13.9157 4.24623 12.9393 5.22254L4.35355 13.8083C4.25978 13.9021 4.13261 13.9548 4 13.9548H1C0.867392 13.9548 0.740215 13.9021 0.646447 13.8083C0.552679 13.7146 0.5 13.5874 0.5 13.4548V10.4548ZM1.5 10.6619L1.5 12.9548H3.79289L10.7929 5.95476L8.50002 3.66186L1.5 10.6619ZM9.20713 2.95476L11.5 5.24765L12.2322 4.51544C12.818 3.92965 12.818 2.9799 12.2322 2.39412L12.0607 2.22254C11.4749 1.63676 10.5251 1.63676 9.93934 2.22254L9.20713 2.95476Z" fill="#717171"/>
<path d="M7 13.4548C7 13.1786 7.22386 12.9548 7.5 12.9548H12.5C12.7761 12.9548 13 13.1786 13 13.4548C13 13.7309 12.7761 13.9548 12.5 13.9548H7.5C7.22386 13.9548 7 13.7309 7 13.4548Z" fill="#717171"/>
</svg>
