<svg width="18" height="18" viewBox="0 0 18 18" fill="none" xmlns="http://www.w3.org/2000/svg">
<path d="M3.55806 5.43306C3.31398 5.67714 3.31398 6.07287 3.55806 6.31694C3.80214 6.56102 4.19786 6.56102 4.44194 6.31694L8.375 2.38388L8.375 13.375C8.375 13.7202 8.65482 14 9 14C9.34518 14 9.625 13.7202 9.625 13.375L9.625 2.38388L13.5581 6.31694C13.8021 6.56102 14.1979 6.56102 14.4419 6.31694C14.686 6.07287 14.686 5.67714 14.4419 5.43306L9.44194 0.433058C9.43812 0.429236 9.43425 0.425468 9.43034 0.421756C9.31602 0.313207 9.16478 0.251782 9.00691 0.250038C9.00461 0.250013 9.00231 0.25 9 0.25C8.99769 0.25 8.99539 0.250013 8.99309 0.250038C8.83141 0.251824 8.67667 0.316212 8.56143 0.42971C8.5603 0.430821 8.55918 0.431937 8.55806 0.433058L3.55806 5.43306Z" fill="#222222"/>
<path d="M0.875 17.125C0.875 16.7798 1.15482 16.5 1.5 16.5H16.5C16.8452 16.5 17.125 16.7798 17.125 17.125C17.125 17.4702 16.8452 17.75 16.5 17.75H1.5C1.15482 17.75 0.875 17.4702 0.875 17.125Z" fill="#222222"/>
</svg>
